HIERARCHY
ROOT Hips
{
	OFFSET 0.00000 0.00000 0.00000
	CHANNELS 6 Xposition Yposition Zposition Zrotation Yrotation Xrotation 
	JOINT LHipJoint
	{
		OFFSET 0 0 0
		CHANNELS 3 Zrotation Yrotation Xrotation
		JOINT LeftHip
		{
			OFFSET 1.40252 -1.71424 0.59123
			CHANNELS 3 Zrotation Yrotation Xrotation
			JOINT LeftKnee
			{
				OFFSET 2.50071 -6.87065 0.00000
				CHANNELS 3 Zrotation Yrotation Xrotation
				JOINT LeftAnkle
				{
					OFFSET 2.50834 -6.89162 0.00000
					CHANNELS 3 Zrotation Yrotation Xrotation
					JOINT LeftToe
					{
						OFFSET 0.21528 -0.59149 1.64448
						CHANNELS 3 Zrotation Yrotation Xrotation
						End Site
						{
							OFFSET 0.00000 -0.00000 0.87921
						}
					}
				}
			}
		}
	}
	JOINT RHipJoint
	{
		OFFSET 0 0 0
		CHANNELS 3 Zrotation Yrotation Xrotation
		JOINT RightHip
		{
			OFFSET -1.53651 -1.71424 0.59123
			CHANNELS 3 Zrotation Yrotation Xrotation
			JOINT RightKnee
			{
				OFFSET -2.45783 -6.75285 0.00000
				CHANNELS 3 Zrotation Yrotation Xrotation
				JOINT RightAnkle
				{
					OFFSET -2.51921 -6.92147 0.00000
					CHANNELS 3 Zrotation Yrotation Xrotation
					JOINT RightToe
					{
						OFFSET -0.21777 -0.59831 1.59676
						CHANNELS 3 Zrotation Yrotation Xrotation
						End Site
						{
							OFFSET -0.00000 -0.00000 0.85779
						}
					}
				}
			}
		}
	}
	JOINT lowerback
	{
		OFFSET 0 0 0
		CHANNELS 3 Zrotation Yrotation Xrotation
		JOINT Chest
		{
			OFFSET 0.02212 2.07622 0.03776
			CHANNELS 3 Zrotation Yrotation Xrotation
			JOINT Chest2
			{
				OFFSET -0.00949 2.08009 -0.00123
				CHANNELS 3 Zrotation Yrotation Xrotation
				JOINT lowerneck
				{
					OFFSET 0 0 0
					CHANNELS 3 Zrotation Yrotation Xrotation
					JOINT Neck
					{
						OFFSET 0.00288 1.67184 0.11155
						CHANNELS 3 Zrotation Yrotation Xrotation
						JOINT Head
						{
							OFFSET -0.02412 1.66997 -0.22040
							CHANNELS 3 Zrotation Yrotation Xrotation
							End Site
							{
								OFFSET -0.01026 1.69043 -0.08683
							}
						}
					}
				}
				JOINT LeftCollar
				{
					OFFSET 0 0 0
					CHANNELS 3 Zrotation Yrotation Xrotation
					JOINT LeftShoulder
					{
						OFFSET 3.97941 0.74048 0.81462
CHANNELS 3 Zrotation Xrotation Yrotation
						JOINT LeftElbow
						{
OFFSET 0 -5.018340 -0.000000
CHANNELS 3 Zrotation Xrotation Yrotation
							JOINT LeftWrist
							{
OFFSET 0 -3.486900 0.000000
CHANNELS 3 Zrotation Xrotation Yrotation
								JOINT lhand
								{
									OFFSET 0 0 0
CHANNELS 3 Zrotation Xrotation Yrotation
									JOINT LFingers
									{
OFFSET 0 -0.767990 0.000000
CHANNELS 3 Zrotation Xrotation Yrotation
										End Site
										{
OFFSET 0 -0.619170 0.000000
										}
									}
								}
								JOINT LThumb
								{
OFFSET 0 0.000000 0.000000
CHANNELS 3 Zrotation Xrotation Yrotation
									End Site
									{
OFFSET 0 -0.628630 0.628630
									}
								}
							}
						}
					}
				}
				JOINT RightCollar
				{
					OFFSET 0 0 0
					CHANNELS 3 Zrotation Yrotation Xrotation
					JOINT RightShoulder
					{
						OFFSET -3.88702 1.02123 0.44091
CHANNELS 3 Zrotation Xrotation Yrotation
						JOINT RightElbow
						{
OFFSET 0 -4.701640 0.000000
CHANNELS 3 Zrotation Xrotation Yrotation
							JOINT RightWrist
							{
OFFSET 0 -3.499110 0.000000
CHANNELS 3 Zrotation Xrotation Yrotation
								JOINT rhand
								{
									OFFSET 0 0 0
CHANNELS 3 Zrotation Xrotation Yrotation
									JOINT RFingers
									{
OFFSET 0 -0.739330 0.000000
CHANNELS 3 Zrotation Xrotation Yrotation
										End Site
										{
OFFSET 0 -0.596070 0.000000
										}
									}
								}
								JOINT RThumb
								{
OFFSET 0 0.000000 0.000000
CHANNELS 3 Zrotation Xrotation Yrotation
									End Site
									{
OFFSET 0 -0.605170 0.605170
									}
								}
							}
						}
					}
				}
			}
		}
	}
}
MOTION
Frames: 12
Frame Time: 0.008333333333333333
10.666643 16.875006 1.643972 538.130728 18.021374 186.685975 0.000000 0.000000 0.000000 -27.568240 -9.693543 -35.403486 1.874368 8.599145 24.549395 -0.664235 -14.303207 6.342305 0.990982 -6.333716 -17.756657 0.000000 0.000000 0.000000 16.429173 7.382330 -19.602885 -5.569465 -13.996470 43.226059 -1.550500 4.857478 -22.467921 -0.003763 -0.273110 0.750722 4.729921 1.468984 -2.018044 -0.370770 1.849603 0.273071 -2.968118 0.968760 1.575041 -2.372088 -36.363533 -10.109413 -0.111740 25.078420 6.391876 179.089284 10.078093 30.121900 0.000000 0.000000 0.000000 5.750157 18.263707 -35.951490 83.500262 -59.839764 54.374148 22.451329 -13.760246 -44.657699 0.000000 0.000000 0.000000 -7.125000 0.000000 0.000000 -30.057126 75.193052 21.809987 0.000000 0.000000 0.000000 -30.763144 -6.175942 -15.933584 -49.389220 -52.744761 -25.687482 -8.469990 -43.769322 -4.008407 0.000000 0.000000 0.000000 7.125000 0.000000 0.000000 13.652329 25.884533 6.498665
10.476625 17.004796 2.177263 538.075292 14.973919 188.263302 0.000000 0.000000 0.000000 -23.988330 -11.757098 -38.339963 3.813250 11.901278 35.391927 0.111436 -6.712902 -7.113455 0.387683 -3.972535 -11.003114 0.000000 0.000000 0.000000 16.931731 9.241879 -18.443280 -3.989379 -12.145432 36.249673 -1.752367 -0.068628 -25.086381 -0.003853 -0.378663 1.040332 4.634892 2.164835 -1.815706 -0.306125 2.779284 0.816933 -2.804550 1.453956 2.095116 0.525034 -38.610452 -12.759824 -0.731649 22.279475 5.745147 178.554424 1.396130 30.336439 0.000000 0.000000 0.000000 6.032826 19.572844 -34.145412 81.793558 -59.743855 52.899150 21.060400 -15.388394 -44.473175 0.000000 0.000000 0.000000 -7.125000 0.000000 0.000000 -31.289336 74.524911 22.314916 0.000000 0.000000 0.000000 -36.149371 -8.065465 -19.864271 -42.119046 -49.273848 -20.031437 -0.910950 -44.112775 -5.229969 0.000000 0.000000 0.000000 7.125000 0.000000 0.000000 18.994801 24.701256 9.848085
10.247628 17.154512 2.661759 538.267758 11.399348 189.983411 0.000000 0.000000 0.000000 -20.458454 -12.442382 -41.078916 7.076167 15.387013 49.146305 0.228396 -0.387807 -8.914562 0.019613 0.604229 1.660603 0.000000 0.000000 0.000000 16.738774 8.448640 -19.047944 -2.863268 -10.467663 30.507464 -1.467179 -3.573246 -24.410517 -0.073428 -1.747320 4.807788 5.273383 2.625958 -2.063548 -0.136367 3.364378 0.866360 -2.944753 1.762747 2.362377 4.663222 -41.497231 -14.674591 -1.886760 19.867341 5.390405 178.067322 -12.406321 31.385958 0.000000 0.000000 0.000000 6.782987 21.028448 -32.133747 78.665892 -59.508389 50.200572 20.755290 -14.831775 -45.114703 0.000000 0.000000 0.000000 -7.125000 0.000000 0.000000 -33.281113 74.899432 24.059085 0.000000 0.000000 0.000000 -39.919701 -8.577866 -22.663581 -38.064854 -46.879562 -17.013235 3.304320 -43.076143 -6.172547 0.000000 0.000000 0.000000 7.125000 0.000000 0.000000 21.804251 23.771976 12.028887
10.017190 17.308682 3.064613 538.884466 7.822203 191.719474 0.000000 0.000000 0.000000 -17.576758 -8.486402 -41.720302 9.753983 17.267174 58.660063 0.187335 3.341770 -10.124008 0.316051 3.597551 9.948796 0.000000 0.000000 0.000000 16.751780 7.190138 -19.575683 -1.986519 -8.834405 25.281013 -1.014422 -6.231746 -22.250888 -0.083872 -1.868433 5.142121 6.004088 3.185779 -2.993737 0.306482 4.033681 0.812404 -2.804620 2.122414 2.910482 -12.101124 34.488822 -16.785760 3.599431 0.455733 4.146034 176.025232 37.235384 28.337295 0.000000 0.000000 0.000000 7.480900 21.865618 -30.131620 76.620854 -59.312615 48.440080 21.497176 -15.351845 -44.457826 0.000000 0.000000 0.000000 -7.125000 0.000000 0.000000 -30.724352 74.676601 21.989763 0.000000 0.000000 0.000000 -42.485144 -8.124095 -26.409492 -35.186526 -44.942719 -14.945688 2.576469 -42.639424 -6.820653 0.000000 0.000000 0.000000 7.125000 0.000000 0.000000 21.196575 23.177523 11.957174
9.798617 17.426425 3.416825 539.097008 2.701651 192.525943 0.000000 0.000000 0.000000 -15.664682 -3.038423 -39.797036 10.846432 17.858860 62.281548 0.004879 7.610628 -10.994450 1.377802 7.405961 20.933555 0.000000 0.000000 0.000000 16.612439 6.552021 -16.745131 -0.988082 -6.313078 17.700301 -0.456544 -11.092204 -21.221603 -0.215573 -2.970377 8.197624 6.029833 3.199032 -3.205978 0.766540 4.060510 0.444915 -2.344515 2.126597 2.618381 -11.923687 45.516350 -15.124632 3.728438 -8.334652 4.594588 176.346866 33.194344 28.070828 0.000000 0.000000 0.000000 8.665713 22.931041 -27.763965 76.791150 -59.330244 48.586529 19.973259 -16.164656 -44.601618 0.000000 0.000000 0.000000 -7.125000 0.000000 0.000000 -32.891621 74.218842 23.307850 0.000000 0.000000 0.000000 -42.953733 -6.956543 -32.870874 -32.285807 -42.772629 -12.934955 2.276357 -43.723075 -7.990632 0.000000 0.000000 0.000000 7.125000 0.000000 0.000000 20.811269 22.086735 12.271004
9.563295 17.455973 3.665234 539.224833 -3.403798 192.934960 0.000000 0.000000 0.000000 -14.133957 4.395348 -37.538969 10.193993 17.515991 60.132791 -0.351013 12.934363 -12.953454 2.317661 9.482654 27.329406 0.000000 0.000000 0.000000 16.266963 6.136273 -12.234420 -0.287271 -3.421773 9.457763 0.299786 -17.275634 -21.578354 -0.533192 -4.673202 12.979875 5.166956 2.813107 -4.065843 1.765474 3.362962 -0.080199 -0.862905 1.679985 2.391711 -9.998121 43.530318 -13.507802 2.915531 -12.105385 5.171103 176.615658 23.916815 28.348037 0.000000 0.000000 0.000000 10.057899 24.817121 -25.237680 79.286339 -59.560871 50.735435 19.852402 -17.156561 -44.597105 0.000000 0.000000 0.000000 -7.125000 0.000000 0.000000 -33.022312 74.171004 23.372194 0.000000 0.000000 0.000000 -42.157050 -4.300998 -38.642381 -32.006028 -42.551244 -12.745202 -0.327293 -46.021631 -8.232229 0.000000 0.000000 0.000000 7.125000 0.000000 0.000000 18.987077 21.860899 11.166070
9.219812 17.443949 3.920110 538.334601 -10.106248 193.525255 0.000000 0.000000 0.000000 -14.600061 11.592066 -34.767448 7.821648 15.974353 51.897977 -0.686307 14.957787 -9.492913 2.317947 9.485755 27.337645 0.000000 0.000000 0.000000 14.236850 5.384975 -9.560548 -0.067819 -1.678571 4.618208 1.173994 -23.056664 -23.144786 -0.779994 -5.634497 15.728606 4.832667 2.238443 -5.177724 2.037893 2.524218 -0.605451 -0.422145 1.246856 2.404258 -9.463193 41.905924 -12.651787 2.465837 -14.550423 5.449875 176.594336 19.646492 28.442477 0.000000 0.000000 0.000000 13.009110 25.964524 -24.070204 82.502781 -59.786546 53.511850 20.425008 -18.474848 -44.899605 0.000000 0.000000 0.000000 -7.125000 0.000000 0.000000 -33.111881 74.613418 23.738518 0.000000 0.000000 0.000000 -39.097796 0.010684 -42.584983 -34.985483 -44.798813 -14.804089 -5.381154 -49.156806 -8.191475 0.000000 0.000000 0.000000 7.125000 0.000000 0.000000 15.457178 21.842582 8.921381
8.744193 17.438379 4.221086 536.955177 -16.593356 193.698559 0.000000 0.000000 0.000000 -16.780664 12.791954 -27.914430 4.771962 13.100247 39.783253 0.215628 6.838323 -13.781767 0.202988 -2.178033 -6.023265 0.000000 0.000000 0.000000 10.812523 0.057780 -12.826763 -0.243225 -3.121837 8.622007 1.215004 -23.645035 -23.989325 -0.623109 -5.030668 14.000452 6.013269 1.687635 -7.109732 1.833819 1.560806 0.185463 -1.302465 0.838561 4.302574 -10.798325 40.422391 -13.705535 1.995366 -16.073853 5.398158 176.242182 17.469891 28.482743 0.000000 0.000000 0.000000 15.675399 24.639963 -23.275082 84.530028 -59.886252 55.264664 20.851697 -19.564799 -46.003222 0.000000 0.000000 0.000000 -7.125000 0.000000 0.000000 -35.619146 75.588460 26.334023 0.000000 0.000000 0.000000 -36.108672 3.218944 -45.413967 -38.683708 -47.264940 -17.467818 -10.902161 -53.899144 -6.748566 0.000000 0.000000 0.000000 7.125000 0.000000 0.000000 11.620911 23.137502 6.248582
8.235264 17.476952 4.588423 532.847898 -21.000971 194.220616 0.000000 0.000000 0.000000 -22.492369 6.630846 -17.375609 2.090715 9.021519 25.884881 0.491979 5.815314 -16.650836 1.143582 -6.788631 -19.091470 0.000000 0.000000 0.000000 3.768450 -7.974519 -21.626011 -1.547715 -7.788860 22.106794 0.972631 -21.130103 -21.174904 -0.288005 -3.450601 9.536006 4.182809 0.865460 -6.521026 1.418288 0.721768 0.018378 -0.812984 0.395794 3.715078 -11.186224 39.897665 -12.743306 1.741204 -16.003934 5.634182 176.254098 17.510559 28.093701 0.000000 0.000000 0.000000 16.448139 25.427544 -23.608498 87.485092 -59.975020 57.822217 22.752381 -20.265581 -47.128966 0.000000 0.000000 0.000000 -7.125000 0.000000 0.000000 -36.962477 77.129709 28.497161 0.000000 0.000000 0.000000 -34.558364 5.789737 -46.057045 -42.766160 -49.619801 -20.524285 -16.499256 -57.845057 -5.800920 0.000000 0.000000 0.000000 7.125000 0.000000 0.000000 7.567172 23.938805 3.881993
7.851807 17.493283 5.005906 531.761718 -22.686289 194.676968 0.000000 0.000000 0.000000 -25.621294 3.714515 -13.366600 1.142165 6.784302 19.078797 0.590934 6.103396 -18.016190 0.832009 -5.818799 -16.259660 0.000000 0.000000 0.000000 0.393455 -8.414827 -32.153580 -4.276445 -12.496122 37.545701 1.219236 -20.416635 -15.554111 -0.809366 -5.703905 15.937787 4.109358 0.760944 -6.440808 1.659120 0.577020 -0.001524 -0.538206 0.316793 3.639414 -12.057233 39.651664 -13.113775 1.510076 -16.135737 5.698260 176.041818 17.028172 28.069977 0.000000 0.000000 0.000000 16.014512 25.531898 -24.695078 92.104689 -59.980210 61.822597 22.019235 -22.610943 -48.105766 0.000000 0.000000 0.000000 -7.125000 0.000000 0.000000 -41.167302 77.471298 32.191389 0.000000 0.000000 0.000000 -33.372692 6.877865 -44.755361 -48.028292 -52.160037 -24.610393 -21.280142 -60.557299 -4.914194 0.000000 0.000000 0.000000 7.125000 0.000000 0.000000 4.031349 24.708546 1.983829
7.658936 17.450122 5.325112 532.897429 -24.099268 194.673299 0.000000 0.000000 0.000000 -25.576213 3.592558 -12.656720 0.811338 5.745358 16.048038 0.774668 5.195329 -19.313689 0.632988 -5.080631 -14.140842 0.000000 0.000000 0.000000 1.718267 -4.647349 -35.680879 -4.822422 -13.176721 40.041086 1.504642 -21.872807 -15.234738 -1.342145 -7.300792 20.624945 4.879520 0.380974 -7.092558 2.062103 -0.066449 -0.238125 -0.612533 -0.006284 3.737655 -11.760631 39.494783 -13.325499 1.316953 -16.988557 5.792635 176.275008 15.086249 28.440716 0.000000 0.000000 0.000000 15.612362 25.591035 -26.748518 97.802881 -59.765136 66.751986 20.697378 -27.056244 -49.637990 0.000000 0.000000 0.000000 -7.125000 0.000000 0.000000 -48.292421 77.815342 38.466453 0.000000 0.000000 0.000000 -30.384932 7.578925 -40.168173 -56.365745 -55.241328 -31.340001 -27.487094 -61.992373 -4.043975 0.000000 0.000000 0.000000 7.125000 0.000000 0.000000 -0.640525 25.421311 -0.304887
7.559532 17.294895 5.620895 529.951978 -27.237455 193.417798 0.000000 0.000000 0.000000 -28.487598 2.888355 -10.307040 0.828435 5.803939 16.217436 1.178936 0.540653 -20.728762 0.471132 -4.401919 -12.210171 0.000000 0.000000 0.000000 -0.525068 -2.525524 -29.118284 -3.868894 -11.983305 35.673739 2.894848 -30.328318 -23.697285 -2.771868 -10.315866 30.006129 2.226727 -1.459053 -4.826333 1.220619 -2.131096 0.238009 -0.146483 -1.045590 2.916077 -11.267386 39.647036 -13.560057 1.222677 -16.968325 5.788490 176.370499 13.560633 28.553496 0.000000 0.000000 0.000000 14.731362 24.002849 -31.127842 102.152125 -59.434201 70.504052 19.225833 -31.067119 -51.076785 0.000000 0.000000 0.000000 -7.125000 0.000000 0.000000 -55.356201 77.898335 44.670334 0.000000 0.000000 0.000000 -26.312565 8.458930 -33.787658 -68.174794 -58.096382 -41.222322 -34.109891 -63.312798 -3.851550 0.000000 0.000000 0.000000 7.125000 0.000000 0.000000 -5.629477 25.331130 -2.686868
